# jack: three elongated boxes, 24 vertices, 18 quad faces, 36 triangles
# built to expose affine vs perspective-correct interpolation:
# few, large triangles, each side face spanning the full model depth
v -0.200000 -0.200000 -1.000000
v 0.200000 -0.200000 -1.000000
v 0.200000 0.200000 -1.000000
v -0.200000 0.200000 -1.000000
v -0.200000 -0.200000 1.000000
v 0.200000 -0.200000 1.000000
v 0.200000 0.200000 1.000000
v -0.200000 0.200000 1.000000
v -1.000000 -0.200000 -0.200000
v 1.000000 -0.200000 -0.200000
v 1.000000 0.200000 -0.200000
v -1.000000 0.200000 -0.200000
v -1.000000 -0.200000 0.200000
v 1.000000 -0.200000 0.200000
v 1.000000 0.200000 0.200000
v -1.000000 0.200000 0.200000
v -0.200000 -1.000000 -0.200000
v 0.200000 -1.000000 -0.200000
v 0.200000 1.000000 -0.200000
v -0.200000 1.000000 -0.200000
v -0.200000 -1.000000 0.200000
v 0.200000 -1.000000 0.200000
v 0.200000 1.000000 0.200000
v -0.200000 1.000000 0.200000
f 5 6 7 8
f 2 1 4 3
f 1 5 8 4
f 6 2 3 7
f 1 2 6 5
f 4 8 7 3
f 13 14 15 16
f 10 9 12 11
f 9 13 16 12
f 14 10 11 15
f 9 10 14 13
f 12 16 15 11
f 21 22 23 24
f 18 17 20 19
f 17 21 24 20
f 22 18 19 23
f 17 18 22 21
f 20 24 23 19
