# torus, 800 vertices, 800 quad faces
v 1.400000 0.000000 0.000000
v 1.380423 0.123607 0.000000
v 1.323607 0.235114 0.000000
v 1.235114 0.323607 0.000000
v 1.123607 0.380423 0.000000
v 1.000000 0.400000 0.000000
v 0.876393 0.380423 0.000000
v 0.764886 0.323607 0.000000
v 0.676393 0.235114 0.000000
v 0.619577 0.123607 0.000000
v 0.600000 0.000000 0.000000
v 0.619577 -0.123607 0.000000
v 0.676393 -0.235114 0.000000
v 0.764886 -0.323607 0.000000
v 0.876393 -0.380423 0.000000
v 1.000000 -0.400000 0.000000
v 1.123607 -0.380423 0.000000
v 1.235114 -0.323607 0.000000
v 1.323607 -0.235114 0.000000
v 1.380423 -0.123607 0.000000
v 1.382764 0.000000 0.219008
v 1.363427 0.123607 0.215946
v 1.307311 0.235114 0.207058
v 1.219908 0.323607 0.193214
v 1.109773 0.380423 0.175771
v 0.987688 0.400000 0.156434
v 0.865603 0.380423 0.137098
v 0.755469 0.323607 0.119655
v 0.668066 0.235114 0.105811
v 0.611949 0.123607 0.096923
v 0.592613 0.000000 0.093861
v 0.611949 -0.123607 0.096923
v 0.668066 -0.235114 0.105811
v 0.755469 -0.323607 0.119655
v 0.865603 -0.380423 0.137098
v 0.987688 -0.400000 0.156434
v 1.109773 -0.380423 0.175771
v 1.219908 -0.323607 0.193214
v 1.307311 -0.235114 0.207058
v 1.363427 -0.123607 0.215946
v 1.331479 0.000000 0.432624
v 1.312860 0.123607 0.426574
v 1.258825 0.235114 0.409017
v 1.174663 0.323607 0.381671
v 1.068614 0.380423 0.347214
v 0.951057 0.400000 0.309017
v 0.833499 0.380423 0.270820
v 0.727450 0.323607 0.236363
v 0.643288 0.235114 0.209017
v 0.589253 0.123607 0.191460
v 0.570634 0.000000 0.185410
v 0.589253 -0.123607 0.191460
v 0.643288 -0.235114 0.209017
v 0.727450 -0.323607 0.236363
v 0.833499 -0.380423 0.270820
v 0.951057 -0.400000 0.309017
v 1.068614 -0.380423 0.347214
v 1.174663 -0.323607 0.381671
v 1.258825 -0.235114 0.409017
v 1.312860 -0.123607 0.426574
v 1.247409 0.000000 0.635587
v 1.229966 0.123607 0.626699
v 1.179342 0.235114 0.600905
v 1.100495 0.323607 0.560730
v 1.001141 0.380423 0.510107
v 0.891007 0.400000 0.453990
v 0.780872 0.380423 0.397874
v 0.681518 0.323607 0.347251
v 0.602671 0.235114 0.307076
v 0.552047 0.123607 0.281282
v 0.534604 0.000000 0.272394
v 0.552047 -0.123607 0.281282
v 0.602671 -0.235114 0.307076
v 0.681518 -0.323607 0.347251
v 0.780872 -0.380423 0.397874
v 0.891007 -0.400000 0.453990
v 1.001141 -0.380423 0.510107
v 1.100495 -0.323607 0.560730
v 1.179342 -0.235114 0.600905
v 1.229966 -0.123607 0.626699
v 1.132624 0.000000 0.822899
v 1.116785 0.123607 0.811392
v 1.070820 0.235114 0.777997
v 0.999228 0.323607 0.725982
v 0.909017 0.380423 0.660440
v 0.809017 0.400000 0.587785
v 0.709017 0.380423 0.515131
v 0.618806 0.323607 0.449589
v 0.547214 0.235114 0.397574
v 0.501249 0.123607 0.364178
v 0.485410 0.000000 0.352671
v 0.501249 -0.123607 0.364178
v 0.547214 -0.235114 0.397574
v 0.618806 -0.323607 0.449589
v 0.709017 -0.380423 0.515131
v 0.809017 -0.400000 0.587785
v 0.909017 -0.380423 0.660440
v 0.999228 -0.323607 0.725982
v 1.070820 -0.235114 0.777997
v 1.116785 -0.123607 0.811392
v 0.989949 0.000000 0.989949
v 0.976106 0.123607 0.976106
v 0.935931 0.235114 0.935931
v 0.873358 0.323607 0.873358
v 0.794510 0.380423 0.794510
v 0.707107 0.400000 0.707107
v 0.619704 0.380423 0.619704
v 0.540856 0.323607 0.540856
v 0.478282 0.235114 0.478282
v 0.438107 0.123607 0.438107
v 0.424264 0.000000 0.424264
v 0.438107 -0.123607 0.438107
v 0.478282 -0.235114 0.478282
v 0.540856 -0.323607 0.540856
v 0.619704 -0.380423 0.619704
v 0.707107 -0.400000 0.707107
v 0.794510 -0.380423 0.794510
v 0.873358 -0.323607 0.873358
v 0.935931 -0.235114 0.935931
v 0.976106 -0.123607 0.976106
v 0.822899 0.000000 1.132624
v 0.811392 0.123607 1.116785
v 0.777997 0.235114 1.070820
v 0.725982 0.323607 0.999228
v 0.660440 0.380423 0.909017
v 0.587785 0.400000 0.809017
v 0.515131 0.380423 0.709017
v 0.449589 0.323607 0.618806
v 0.397574 0.235114 0.547214
v 0.364178 0.123607 0.501249
v 0.352671 0.000000 0.485410
v 0.364178 -0.123607 0.501249
v 0.397574 -0.235114 0.547214
v 0.449589 -0.323607 0.618806
v 0.515131 -0.380423 0.709017
v 0.587785 -0.400000 0.809017
v 0.660440 -0.380423 0.909017
v 0.725982 -0.323607 0.999228
v 0.777997 -0.235114 1.070820
v 0.811392 -0.123607 1.116785
v 0.635587 0.000000 1.247409
v 0.626699 0.123607 1.229966
v 0.600905 0.235114 1.179342
v 0.560730 0.323607 1.100495
v 0.510107 0.380423 1.001141
v 0.453990 0.400000 0.891007
v 0.397874 0.380423 0.780872
v 0.347251 0.323607 0.681518
v 0.307076 0.235114 0.602671
v 0.281282 0.123607 0.552047
v 0.272394 0.000000 0.534604
v 0.281282 -0.123607 0.552047
v 0.307076 -0.235114 0.602671
v 0.347251 -0.323607 0.681518
v 0.397874 -0.380423 0.780872
v 0.453990 -0.400000 0.891007
v 0.510107 -0.380423 1.001141
v 0.560730 -0.323607 1.100495
v 0.600905 -0.235114 1.179342
v 0.626699 -0.123607 1.229966
v 0.432624 0.000000 1.331479
v 0.426574 0.123607 1.312860
v 0.409017 0.235114 1.258825
v 0.381671 0.323607 1.174663
v 0.347214 0.380423 1.068614
v 0.309017 0.400000 0.951057
v 0.270820 0.380423 0.833499
v 0.236363 0.323607 0.727450
v 0.209017 0.235114 0.643288
v 0.191460 0.123607 0.589253
v 0.185410 0.000000 0.570634
v 0.191460 -0.123607 0.589253
v 0.209017 -0.235114 0.643288
v 0.236363 -0.323607 0.727450
v 0.270820 -0.380423 0.833499
v 0.309017 -0.400000 0.951057
v 0.347214 -0.380423 1.068614
v 0.381671 -0.323607 1.174663
v 0.409017 -0.235114 1.258825
v 0.426574 -0.123607 1.312860
v 0.219008 0.000000 1.382764
v 0.215946 0.123607 1.363427
v 0.207058 0.235114 1.307311
v 0.193214 0.323607 1.219908
v 0.175771 0.380423 1.109773
v 0.156434 0.400000 0.987688
v 0.137098 0.380423 0.865603
v 0.119655 0.323607 0.755469
v 0.105811 0.235114 0.668066
v 0.096923 0.123607 0.611949
v 0.093861 0.000000 0.592613
v 0.096923 -0.123607 0.611949
v 0.105811 -0.235114 0.668066
v 0.119655 -0.323607 0.755469
v 0.137098 -0.380423 0.865603
v 0.156434 -0.400000 0.987688
v 0.175771 -0.380423 1.109773
v 0.193214 -0.323607 1.219908
v 0.207058 -0.235114 1.307311
v 0.215946 -0.123607 1.363427
v 0.000000 0.000000 1.400000
v 0.000000 0.123607 1.380423
v 0.000000 0.235114 1.323607
v 0.000000 0.323607 1.235114
v 0.000000 0.380423 1.123607
v 0.000000 0.400000 1.000000
v 0.000000 0.380423 0.876393
v 0.000000 0.323607 0.764886
v 0.000000 0.235114 0.676393
v 0.000000 0.123607 0.619577
v 0.000000 0.000000 0.600000
v 0.000000 -0.123607 0.619577
v 0.000000 -0.235114 0.676393
v 0.000000 -0.323607 0.764886
v 0.000000 -0.380423 0.876393
v 0.000000 -0.400000 1.000000
v 0.000000 -0.380423 1.123607
v 0.000000 -0.323607 1.235114
v 0.000000 -0.235114 1.323607
v 0.000000 -0.123607 1.380423
v -0.219008 0.000000 1.382764
v -0.215946 0.123607 1.363427
v -0.207058 0.235114 1.307311
v -0.193214 0.323607 1.219908
v -0.175771 0.380423 1.109773
v -0.156434 0.400000 0.987688
v -0.137098 0.380423 0.865603
v -0.119655 0.323607 0.755469
v -0.105811 0.235114 0.668066
v -0.096923 0.123607 0.611949
v -0.093861 0.000000 0.592613
v -0.096923 -0.123607 0.611949
v -0.105811 -0.235114 0.668066
v -0.119655 -0.323607 0.755469
v -0.137098 -0.380423 0.865603
v -0.156434 -0.400000 0.987688
v -0.175771 -0.380423 1.109773
v -0.193214 -0.323607 1.219908
v -0.207058 -0.235114 1.307311
v -0.215946 -0.123607 1.363427
v -0.432624 0.000000 1.331479
v -0.426574 0.123607 1.312860
v -0.409017 0.235114 1.258825
v -0.381671 0.323607 1.174663
v -0.347214 0.380423 1.068614
v -0.309017 0.400000 0.951057
v -0.270820 0.380423 0.833499
v -0.236363 0.323607 0.727450
v -0.209017 0.235114 0.643288
v -0.191460 0.123607 0.589253
v -0.185410 0.000000 0.570634
v -0.191460 -0.123607 0.589253
v -0.209017 -0.235114 0.643288
v -0.236363 -0.323607 0.727450
v -0.270820 -0.380423 0.833499
v -0.309017 -0.400000 0.951057
v -0.347214 -0.380423 1.068614
v -0.381671 -0.323607 1.174663
v -0.409017 -0.235114 1.258825
v -0.426574 -0.123607 1.312860
v -0.635587 0.000000 1.247409
v -0.626699 0.123607 1.229966
v -0.600905 0.235114 1.179342
v -0.560730 0.323607 1.100495
v -0.510107 0.380423 1.001141
v -0.453990 0.400000 0.891007
v -0.397874 0.380423 0.780872
v -0.347251 0.323607 0.681518
v -0.307076 0.235114 0.602671
v -0.281282 0.123607 0.552047
v -0.272394 0.000000 0.534604
v -0.281282 -0.123607 0.552047
v -0.307076 -0.235114 0.602671
v -0.347251 -0.323607 0.681518
v -0.397874 -0.380423 0.780872
v -0.453990 -0.400000 0.891007
v -0.510107 -0.380423 1.001141
v -0.560730 -0.323607 1.100495
v -0.600905 -0.235114 1.179342
v -0.626699 -0.123607 1.229966
v -0.822899 0.000000 1.132624
v -0.811392 0.123607 1.116785
v -0.777997 0.235114 1.070820
v -0.725982 0.323607 0.999228
v -0.660440 0.380423 0.909017
v -0.587785 0.400000 0.809017
v -0.515131 0.380423 0.709017
v -0.449589 0.323607 0.618806
v -0.397574 0.235114 0.547214
v -0.364178 0.123607 0.501249
v -0.352671 0.000000 0.485410
v -0.364178 -0.123607 0.501249
v -0.397574 -0.235114 0.547214
v -0.449589 -0.323607 0.618806
v -0.515131 -0.380423 0.709017
v -0.587785 -0.400000 0.809017
v -0.660440 -0.380423 0.909017
v -0.725982 -0.323607 0.999228
v -0.777997 -0.235114 1.070820
v -0.811392 -0.123607 1.116785
v -0.989949 0.000000 0.989949
v -0.976106 0.123607 0.976106
v -0.935931 0.235114 0.935931
v -0.873358 0.323607 0.873358
v -0.794510 0.380423 0.794510
v -0.707107 0.400000 0.707107
v -0.619704 0.380423 0.619704
v -0.540856 0.323607 0.540856
v -0.478282 0.235114 0.478282
v -0.438107 0.123607 0.438107
v -0.424264 0.000000 0.424264
v -0.438107 -0.123607 0.438107
v -0.478282 -0.235114 0.478282
v -0.540856 -0.323607 0.540856
v -0.619704 -0.380423 0.619704
v -0.707107 -0.400000 0.707107
v -0.794510 -0.380423 0.794510
v -0.873358 -0.323607 0.873358
v -0.935931 -0.235114 0.935931
v -0.976106 -0.123607 0.976106
v -1.132624 0.000000 0.822899
v -1.116785 0.123607 0.811392
v -1.070820 0.235114 0.777997
v -0.999228 0.323607 0.725982
v -0.909017 0.380423 0.660440
v -0.809017 0.400000 0.587785
v -0.709017 0.380423 0.515131
v -0.618806 0.323607 0.449589
v -0.547214 0.235114 0.397574
v -0.501249 0.123607 0.364178
v -0.485410 0.000000 0.352671
v -0.501249 -0.123607 0.364178
v -0.547214 -0.235114 0.397574
v -0.618806 -0.323607 0.449589
v -0.709017 -0.380423 0.515131
v -0.809017 -0.400000 0.587785
v -0.909017 -0.380423 0.660440
v -0.999228 -0.323607 0.725982
v -1.070820 -0.235114 0.777997
v -1.116785 -0.123607 0.811392
v -1.247409 0.000000 0.635587
v -1.229966 0.123607 0.626699
v -1.179342 0.235114 0.600905
v -1.100495 0.323607 0.560730
v -1.001141 0.380423 0.510107
v -0.891007 0.400000 0.453990
v -0.780872 0.380423 0.397874
v -0.681518 0.323607 0.347251
v -0.602671 0.235114 0.307076
v -0.552047 0.123607 0.281282
v -0.534604 0.000000 0.272394
v -0.552047 -0.123607 0.281282
v -0.602671 -0.235114 0.307076
v -0.681518 -0.323607 0.347251
v -0.780872 -0.380423 0.397874
v -0.891007 -0.400000 0.453990
v -1.001141 -0.380423 0.510107
v -1.100495 -0.323607 0.560730
v -1.179342 -0.235114 0.600905
v -1.229966 -0.123607 0.626699
v -1.331479 0.000000 0.432624
v -1.312860 0.123607 0.426574
v -1.258825 0.235114 0.409017
v -1.174663 0.323607 0.381671
v -1.068614 0.380423 0.347214
v -0.951057 0.400000 0.309017
v -0.833499 0.380423 0.270820
v -0.727450 0.323607 0.236363
v -0.643288 0.235114 0.209017
v -0.589253 0.123607 0.191460
v -0.570634 0.000000 0.185410
v -0.589253 -0.123607 0.191460
v -0.643288 -0.235114 0.209017
v -0.727450 -0.323607 0.236363
v -0.833499 -0.380423 0.270820
v -0.951057 -0.400000 0.309017
v -1.068614 -0.380423 0.347214
v -1.174663 -0.323607 0.381671
v -1.258825 -0.235114 0.409017
v -1.312860 -0.123607 0.426574
v -1.382764 0.000000 0.219008
v -1.363427 0.123607 0.215946
v -1.307311 0.235114 0.207058
v -1.219908 0.323607 0.193214
v -1.109773 0.380423 0.175771
v -0.987688 0.400000 0.156434
v -0.865603 0.380423 0.137098
v -0.755469 0.323607 0.119655
v -0.668066 0.235114 0.105811
v -0.611949 0.123607 0.096923
v -0.592613 0.000000 0.093861
v -0.611949 -0.123607 0.096923
v -0.668066 -0.235114 0.105811
v -0.755469 -0.323607 0.119655
v -0.865603 -0.380423 0.137098
v -0.987688 -0.400000 0.156434
v -1.109773 -0.380423 0.175771
v -1.219908 -0.323607 0.193214
v -1.307311 -0.235114 0.207058
v -1.363427 -0.123607 0.215946
v -1.400000 0.000000 0.000000
v -1.380423 0.123607 0.000000
v -1.323607 0.235114 0.000000
v -1.235114 0.323607 0.000000
v -1.123607 0.380423 0.000000
v -1.000000 0.400000 0.000000
v -0.876393 0.380423 0.000000
v -0.764886 0.323607 0.000000
v -0.676393 0.235114 0.000000
v -0.619577 0.123607 0.000000
v -0.600000 0.000000 0.000000
v -0.619577 -0.123607 0.000000
v -0.676393 -0.235114 0.000000
v -0.764886 -0.323607 0.000000
v -0.876393 -0.380423 0.000000
v -1.000000 -0.400000 0.000000
v -1.123607 -0.380423 0.000000
v -1.235114 -0.323607 0.000000
v -1.323607 -0.235114 0.000000
v -1.380423 -0.123607 0.000000
v -1.382764 0.000000 -0.219008
v -1.363427 0.123607 -0.215946
v -1.307311 0.235114 -0.207058
v -1.219908 0.323607 -0.193214
v -1.109773 0.380423 -0.175771
v -0.987688 0.400000 -0.156434
v -0.865603 0.380423 -0.137098
v -0.755469 0.323607 -0.119655
v -0.668066 0.235114 -0.105811
v -0.611949 0.123607 -0.096923
v -0.592613 0.000000 -0.093861
v -0.611949 -0.123607 -0.096923
v -0.668066 -0.235114 -0.105811
v -0.755469 -0.323607 -0.119655
v -0.865603 -0.380423 -0.137098
v -0.987688 -0.400000 -0.156434
v -1.109773 -0.380423 -0.175771
v -1.219908 -0.323607 -0.193214
v -1.307311 -0.235114 -0.207058
v -1.363427 -0.123607 -0.215946
v -1.331479 0.000000 -0.432624
v -1.312860 0.123607 -0.426574
v -1.258825 0.235114 -0.409017
v -1.174663 0.323607 -0.381671
v -1.068614 0.380423 -0.347214
v -0.951057 0.400000 -0.309017
v -0.833499 0.380423 -0.270820
v -0.727450 0.323607 -0.236363
v -0.643288 0.235114 -0.209017
v -0.589253 0.123607 -0.191460
v -0.570634 0.000000 -0.185410
v -0.589253 -0.123607 -0.191460
v -0.643288 -0.235114 -0.209017
v -0.727450 -0.323607 -0.236363
v -0.833499 -0.380423 -0.270820
v -0.951057 -0.400000 -0.309017
v -1.068614 -0.380423 -0.347214
v -1.174663 -0.323607 -0.381671
v -1.258825 -0.235114 -0.409017
v -1.312860 -0.123607 -0.426574
v -1.247409 0.000000 -0.635587
v -1.229966 0.123607 -0.626699
v -1.179342 0.235114 -0.600905
v -1.100495 0.323607 -0.560730
v -1.001141 0.380423 -0.510107
v -0.891007 0.400000 -0.453990
v -0.780872 0.380423 -0.397874
v -0.681518 0.323607 -0.347251
v -0.602671 0.235114 -0.307076
v -0.552047 0.123607 -0.281282
v -0.534604 0.000000 -0.272394
v -0.552047 -0.123607 -0.281282
v -0.602671 -0.235114 -0.307076
v -0.681518 -0.323607 -0.347251
v -0.780872 -0.380423 -0.397874
v -0.891007 -0.400000 -0.453990
v -1.001141 -0.380423 -0.510107
v -1.100495 -0.323607 -0.560730
v -1.179342 -0.235114 -0.600905
v -1.229966 -0.123607 -0.626699
v -1.132624 0.000000 -0.822899
v -1.116785 0.123607 -0.811392
v -1.070820 0.235114 -0.777997
v -0.999228 0.323607 -0.725982
v -0.909017 0.380423 -0.660440
v -0.809017 0.400000 -0.587785
v -0.709017 0.380423 -0.515131
v -0.618806 0.323607 -0.449589
v -0.547214 0.235114 -0.397574
v -0.501249 0.123607 -0.364178
v -0.485410 0.000000 -0.352671
v -0.501249 -0.123607 -0.364178
v -0.547214 -0.235114 -0.397574
v -0.618806 -0.323607 -0.449589
v -0.709017 -0.380423 -0.515131
v -0.809017 -0.400000 -0.587785
v -0.909017 -0.380423 -0.660440
v -0.999228 -0.323607 -0.725982
v -1.070820 -0.235114 -0.777997
v -1.116785 -0.123607 -0.811392
v -0.989949 0.000000 -0.989949
v -0.976106 0.123607 -0.976106
v -0.935931 0.235114 -0.935931
v -0.873358 0.323607 -0.873358
v -0.794510 0.380423 -0.794510
v -0.707107 0.400000 -0.707107
v -0.619704 0.380423 -0.619704
v -0.540856 0.323607 -0.540856
v -0.478282 0.235114 -0.478282
v -0.438107 0.123607 -0.438107
v -0.424264 0.000000 -0.424264
v -0.438107 -0.123607 -0.438107
v -0.478282 -0.235114 -0.478282
v -0.540856 -0.323607 -0.540856
v -0.619704 -0.380423 -0.619704
v -0.707107 -0.400000 -0.707107
v -0.794510 -0.380423 -0.794510
v -0.873358 -0.323607 -0.873358
v -0.935931 -0.235114 -0.935931
v -0.976106 -0.123607 -0.976106
v -0.822899 0.000000 -1.132624
v -0.811392 0.123607 -1.116785
v -0.777997 0.235114 -1.070820
v -0.725982 0.323607 -0.999228
v -0.660440 0.380423 -0.909017
v -0.587785 0.400000 -0.809017
v -0.515131 0.380423 -0.709017
v -0.449589 0.323607 -0.618806
v -0.397574 0.235114 -0.547214
v -0.364178 0.123607 -0.501249
v -0.352671 0.000000 -0.485410
v -0.364178 -0.123607 -0.501249
v -0.397574 -0.235114 -0.547214
v -0.449589 -0.323607 -0.618806
v -0.515131 -0.380423 -0.709017
v -0.587785 -0.400000 -0.809017
v -0.660440 -0.380423 -0.909017
v -0.725982 -0.323607 -0.999228
v -0.777997 -0.235114 -1.070820
v -0.811392 -0.123607 -1.116785
v -0.635587 0.000000 -1.247409
v -0.626699 0.123607 -1.229966
v -0.600905 0.235114 -1.179342
v -0.560730 0.323607 -1.100495
v -0.510107 0.380423 -1.001141
v -0.453990 0.400000 -0.891007
v -0.397874 0.380423 -0.780872
v -0.347251 0.323607 -0.681518
v -0.307076 0.235114 -0.602671
v -0.281282 0.123607 -0.552047
v -0.272394 0.000000 -0.534604
v -0.281282 -0.123607 -0.552047
v -0.307076 -0.235114 -0.602671
v -0.347251 -0.323607 -0.681518
v -0.397874 -0.380423 -0.780872
v -0.453990 -0.400000 -0.891007
v -0.510107 -0.380423 -1.001141
v -0.560730 -0.323607 -1.100495
v -0.600905 -0.235114 -1.179342
v -0.626699 -0.123607 -1.229966
v -0.432624 0.000000 -1.331479
v -0.426574 0.123607 -1.312860
v -0.409017 0.235114 -1.258825
v -0.381671 0.323607 -1.174663
v -0.347214 0.380423 -1.068614
v -0.309017 0.400000 -0.951057
v -0.270820 0.380423 -0.833499
v -0.236363 0.323607 -0.727450
v -0.209017 0.235114 -0.643288
v -0.191460 0.123607 -0.589253
v -0.185410 0.000000 -0.570634
v -0.191460 -0.123607 -0.589253
v -0.209017 -0.235114 -0.643288
v -0.236363 -0.323607 -0.727450
v -0.270820 -0.380423 -0.833499
v -0.309017 -0.400000 -0.951057
v -0.347214 -0.380423 -1.068614
v -0.381671 -0.323607 -1.174663
v -0.409017 -0.235114 -1.258825
v -0.426574 -0.123607 -1.312860
v -0.219008 0.000000 -1.382764
v -0.215946 0.123607 -1.363427
v -0.207058 0.235114 -1.307311
v -0.193214 0.323607 -1.219908
v -0.175771 0.380423 -1.109773
v -0.156434 0.400000 -0.987688
v -0.137098 0.380423 -0.865603
v -0.119655 0.323607 -0.755469
v -0.105811 0.235114 -0.668066
v -0.096923 0.123607 -0.611949
v -0.093861 0.000000 -0.592613
v -0.096923 -0.123607 -0.611949
v -0.105811 -0.235114 -0.668066
v -0.119655 -0.323607 -0.755469
v -0.137098 -0.380423 -0.865603
v -0.156434 -0.400000 -0.987688
v -0.175771 -0.380423 -1.109773
v -0.193214 -0.323607 -1.219908
v -0.207058 -0.235114 -1.307311
v -0.215946 -0.123607 -1.363427
v -0.000000 0.000000 -1.400000
v -0.000000 0.123607 -1.380423
v -0.000000 0.235114 -1.323607
v -0.000000 0.323607 -1.235114
v -0.000000 0.380423 -1.123607
v -0.000000 0.400000 -1.000000
v -0.000000 0.380423 -0.876393
v -0.000000 0.323607 -0.764886
v -0.000000 0.235114 -0.676393
v -0.000000 0.123607 -0.619577
v -0.000000 0.000000 -0.600000
v -0.000000 -0.123607 -0.619577
v -0.000000 -0.235114 -0.676393
v -0.000000 -0.323607 -0.764886
v -0.000000 -0.380423 -0.876393
v -0.000000 -0.400000 -1.000000
v -0.000000 -0.380423 -1.123607
v -0.000000 -0.323607 -1.235114
v -0.000000 -0.235114 -1.323607
v -0.000000 -0.123607 -1.380423
v 0.219008 0.000000 -1.382764
v 0.215946 0.123607 -1.363427
v 0.207058 0.235114 -1.307311
v 0.193214 0.323607 -1.219908
v 0.175771 0.380423 -1.109773
v 0.156434 0.400000 -0.987688
v 0.137098 0.380423 -0.865603
v 0.119655 0.323607 -0.755469
v 0.105811 0.235114 -0.668066
v 0.096923 0.123607 -0.611949
v 0.093861 0.000000 -0.592613
v 0.096923 -0.123607 -0.611949
v 0.105811 -0.235114 -0.668066
v 0.119655 -0.323607 -0.755469
v 0.137098 -0.380423 -0.865603
v 0.156434 -0.400000 -0.987688
v 0.175771 -0.380423 -1.109773
v 0.193214 -0.323607 -1.219908
v 0.207058 -0.235114 -1.307311
v 0.215946 -0.123607 -1.363427
v 0.432624 0.000000 -1.331479
v 0.426574 0.123607 -1.312860
v 0.409017 0.235114 -1.258825
v 0.381671 0.323607 -1.174663
v 0.347214 0.380423 -1.068614
v 0.309017 0.400000 -0.951057
v 0.270820 0.380423 -0.833499
v 0.236363 0.323607 -0.727450
v 0.209017 0.235114 -0.643288
v 0.191460 0.123607 -0.589253
v 0.185410 0.000000 -0.570634
v 0.191460 -0.123607 -0.589253
v 0.209017 -0.235114 -0.643288
v 0.236363 -0.323607 -0.727450
v 0.270820 -0.380423 -0.833499
v 0.309017 -0.400000 -0.951057
v 0.347214 -0.380423 -1.068614
v 0.381671 -0.323607 -1.174663
v 0.409017 -0.235114 -1.258825
v 0.426574 -0.123607 -1.312860
v 0.635587 0.000000 -1.247409
v 0.626699 0.123607 -1.229966
v 0.600905 0.235114 -1.179342
v 0.560730 0.323607 -1.100495
v 0.510107 0.380423 -1.001141
v 0.453990 0.400000 -0.891007
v 0.397874 0.380423 -0.780872
v 0.347251 0.323607 -0.681518
v 0.307076 0.235114 -0.602671
v 0.281282 0.123607 -0.552047
v 0.272394 0.000000 -0.534604
v 0.281282 -0.123607 -0.552047
v 0.307076 -0.235114 -0.602671
v 0.347251 -0.323607 -0.681518
v 0.397874 -0.380423 -0.780872
v 0.453990 -0.400000 -0.891007
v 0.510107 -0.380423 -1.001141
v 0.560730 -0.323607 -1.100495
v 0.600905 -0.235114 -1.179342
v 0.626699 -0.123607 -1.229966
v 0.822899 0.000000 -1.132624
v 0.811392 0.123607 -1.116785
v 0.777997 0.235114 -1.070820
v 0.725982 0.323607 -0.999228
v 0.660440 0.380423 -0.909017
v 0.587785 0.400000 -0.809017
v 0.515131 0.380423 -0.709017
v 0.449589 0.323607 -0.618806
v 0.397574 0.235114 -0.547214
v 0.364178 0.123607 -0.501249
v 0.352671 0.000000 -0.485410
v 0.364178 -0.123607 -0.501249
v 0.397574 -0.235114 -0.547214
v 0.449589 -0.323607 -0.618806
v 0.515131 -0.380423 -0.709017
v 0.587785 -0.400000 -0.809017
v 0.660440 -0.380423 -0.909017
v 0.725982 -0.323607 -0.999228
v 0.777997 -0.235114 -1.070820
v 0.811392 -0.123607 -1.116785
v 0.989949 0.000000 -0.989949
v 0.976106 0.123607 -0.976106
v 0.935931 0.235114 -0.935931
v 0.873358 0.323607 -0.873358
v 0.794510 0.380423 -0.794510
v 0.707107 0.400000 -0.707107
v 0.619704 0.380423 -0.619704
v 0.540856 0.323607 -0.540856
v 0.478282 0.235114 -0.478282
v 0.438107 0.123607 -0.438107
v 0.424264 0.000000 -0.424264
v 0.438107 -0.123607 -0.438107
v 0.478282 -0.235114 -0.478282
v 0.540856 -0.323607 -0.540856
v 0.619704 -0.380423 -0.619704
v 0.707107 -0.400000 -0.707107
v 0.794510 -0.380423 -0.794510
v 0.873358 -0.323607 -0.873358
v 0.935931 -0.235114 -0.935931
v 0.976106 -0.123607 -0.976106
v 1.132624 0.000000 -0.822899
v 1.116785 0.123607 -0.811392
v 1.070820 0.235114 -0.777997
v 0.999228 0.323607 -0.725982
v 0.909017 0.380423 -0.660440
v 0.809017 0.400000 -0.587785
v 0.709017 0.380423 -0.515131
v 0.618806 0.323607 -0.449589
v 0.547214 0.235114 -0.397574
v 0.501249 0.123607 -0.364178
v 0.485410 0.000000 -0.352671
v 0.501249 -0.123607 -0.364178
v 0.547214 -0.235114 -0.397574
v 0.618806 -0.323607 -0.449589
v 0.709017 -0.380423 -0.515131
v 0.809017 -0.400000 -0.587785
v 0.909017 -0.380423 -0.660440
v 0.999228 -0.323607 -0.725982
v 1.070820 -0.235114 -0.777997
v 1.116785 -0.123607 -0.811392
v 1.247409 0.000000 -0.635587
v 1.229966 0.123607 -0.626699
v 1.179342 0.235114 -0.600905
v 1.100495 0.323607 -0.560730
v 1.001141 0.380423 -0.510107
v 0.891007 0.400000 -0.453990
v 0.780872 0.380423 -0.397874
v 0.681518 0.323607 -0.347251
v 0.602671 0.235114 -0.307076
v 0.552047 0.123607 -0.281282
v 0.534604 0.000000 -0.272394
v 0.552047 -0.123607 -0.281282
v 0.602671 -0.235114 -0.307076
v 0.681518 -0.323607 -0.347251
v 0.780872 -0.380423 -0.397874
v 0.891007 -0.400000 -0.453990
v 1.001141 -0.380423 -0.510107
v 1.100495 -0.323607 -0.560730
v 1.179342 -0.235114 -0.600905
v 1.229966 -0.123607 -0.626699
v 1.331479 0.000000 -0.432624
v 1.312860 0.123607 -0.426574
v 1.258825 0.235114 -0.409017
v 1.174663 0.323607 -0.381671
v 1.068614 0.380423 -0.347214
v 0.951057 0.400000 -0.309017
v 0.833499 0.380423 -0.270820
v 0.727450 0.323607 -0.236363
v 0.643288 0.235114 -0.209017
v 0.589253 0.123607 -0.191460
v 0.570634 0.000000 -0.185410
v 0.589253 -0.123607 -0.191460
v 0.643288 -0.235114 -0.209017
v 0.727450 -0.323607 -0.236363
v 0.833499 -0.380423 -0.270820
v 0.951057 -0.400000 -0.309017
v 1.068614 -0.380423 -0.347214
v 1.174663 -0.323607 -0.381671
v 1.258825 -0.235114 -0.409017
v 1.312860 -0.123607 -0.426574
v 1.382764 0.000000 -0.219008
v 1.363427 0.123607 -0.215946
v 1.307311 0.235114 -0.207058
v 1.219908 0.323607 -0.193214
v 1.109773 0.380423 -0.175771
v 0.987688 0.400000 -0.156434
v 0.865603 0.380423 -0.137098
v 0.755469 0.323607 -0.119655
v 0.668066 0.235114 -0.105811
v 0.611949 0.123607 -0.096923
v 0.592613 0.000000 -0.093861
v 0.611949 -0.123607 -0.096923
v 0.668066 -0.235114 -0.105811
v 0.755469 -0.323607 -0.119655
v 0.865603 -0.380423 -0.137098
v 0.987688 -0.400000 -0.156434
v 1.109773 -0.380423 -0.175771
v 1.219908 -0.323607 -0.193214
v 1.307311 -0.235114 -0.207058
v 1.363427 -0.123607 -0.215946
f 2 22 21 1
f 3 23 22 2
f 4 24 23 3
f 5 25 24 4
f 6 26 25 5
f 7 27 26 6
f 8 28 27 7
f 9 29 28 8
f 10 30 29 9
f 11 31 30 10
f 12 32 31 11
f 13 33 32 12
f 14 34 33 13
f 15 35 34 14
f 16 36 35 15
f 17 37 36 16
f 18 38 37 17
f 19 39 38 18
f 20 40 39 19
f 1 21 40 20
f 22 42 41 21
f 23 43 42 22
f 24 44 43 23
f 25 45 44 24
f 26 46 45 25
f 27 47 46 26
f 28 48 47 27
f 29 49 48 28
f 30 50 49 29
f 31 51 50 30
f 32 52 51 31
f 33 53 52 32
f 34 54 53 33
f 35 55 54 34
f 36 56 55 35
f 37 57 56 36
f 38 58 57 37
f 39 59 58 38
f 40 60 59 39
f 21 41 60 40
f 42 62 61 41
f 43 63 62 42
f 44 64 63 43
f 45 65 64 44
f 46 66 65 45
f 47 67 66 46
f 48 68 67 47
f 49 69 68 48
f 50 70 69 49
f 51 71 70 50
f 52 72 71 51
f 53 73 72 52
f 54 74 73 53
f 55 75 74 54
f 56 76 75 55
f 57 77 76 56
f 58 78 77 57
f 59 79 78 58
f 60 80 79 59
f 41 61 80 60
f 62 82 81 61
f 63 83 82 62
f 64 84 83 63
f 65 85 84 64
f 66 86 85 65
f 67 87 86 66
f 68 88 87 67
f 69 89 88 68
f 70 90 89 69
f 71 91 90 70
f 72 92 91 71
f 73 93 92 72
f 74 94 93 73
f 75 95 94 74
f 76 96 95 75
f 77 97 96 76
f 78 98 97 77
f 79 99 98 78
f 80 100 99 79
f 61 81 100 80
f 82 102 101 81
f 83 103 102 82
f 84 104 103 83
f 85 105 104 84
f 86 106 105 85
f 87 107 106 86
f 88 108 107 87
f 89 109 108 88
f 90 110 109 89
f 91 111 110 90
f 92 112 111 91
f 93 113 112 92
f 94 114 113 93
f 95 115 114 94
f 96 116 115 95
f 97 117 116 96
f 98 118 117 97
f 99 119 118 98
f 100 120 119 99
f 81 101 120 100
f 102 122 121 101
f 103 123 122 102
f 104 124 123 103
f 105 125 124 104
f 106 126 125 105
f 107 127 126 106
f 108 128 127 107
f 109 129 128 108
f 110 130 129 109
f 111 131 130 110
f 112 132 131 111
f 113 133 132 112
f 114 134 133 113
f 115 135 134 114
f 116 136 135 115
f 117 137 136 116
f 118 138 137 117
f 119 139 138 118
f 120 140 139 119
f 101 121 140 120
f 122 142 141 121
f 123 143 142 122
f 124 144 143 123
f 125 145 144 124
f 126 146 145 125
f 127 147 146 126
f 128 148 147 127
f 129 149 148 128
f 130 150 149 129
f 131 151 150 130
f 132 152 151 131
f 133 153 152 132
f 134 154 153 133
f 135 155 154 134
f 136 156 155 135
f 137 157 156 136
f 138 158 157 137
f 139 159 158 138
f 140 160 159 139
f 121 141 160 140
f 142 162 161 141
f 143 163 162 142
f 144 164 163 143
f 145 165 164 144
f 146 166 165 145
f 147 167 166 146
f 148 168 167 147
f 149 169 168 148
f 150 170 169 149
f 151 171 170 150
f 152 172 171 151
f 153 173 172 152
f 154 174 173 153
f 155 175 174 154
f 156 176 175 155
f 157 177 176 156
f 158 178 177 157
f 159 179 178 158
f 160 180 179 159
f 141 161 180 160
f 162 182 181 161
f 163 183 182 162
f 164 184 183 163
f 165 185 184 164
f 166 186 185 165
f 167 187 186 166
f 168 188 187 167
f 169 189 188 168
f 170 190 189 169
f 171 191 190 170
f 172 192 191 171
f 173 193 192 172
f 174 194 193 173
f 175 195 194 174
f 176 196 195 175
f 177 197 196 176
f 178 198 197 177
f 179 199 198 178
f 180 200 199 179
f 161 181 200 180
f 182 202 201 181
f 183 203 202 182
f 184 204 203 183
f 185 205 204 184
f 186 206 205 185
f 187 207 206 186
f 188 208 207 187
f 189 209 208 188
f 190 210 209 189
f 191 211 210 190
f 192 212 211 191
f 193 213 212 192
f 194 214 213 193
f 195 215 214 194
f 196 216 215 195
f 197 217 216 196
f 198 218 217 197
f 199 219 218 198
f 200 220 219 199
f 181 201 220 200
f 202 222 221 201
f 203 223 222 202
f 204 224 223 203
f 205 225 224 204
f 206 226 225 205
f 207 227 226 206
f 208 228 227 207
f 209 229 228 208
f 210 230 229 209
f 211 231 230 210
f 212 232 231 211
f 213 233 232 212
f 214 234 233 213
f 215 235 234 214
f 216 236 235 215
f 217 237 236 216
f 218 238 237 217
f 219 239 238 218
f 220 240 239 219
f 201 221 240 220
f 222 242 241 221
f 223 243 242 222
f 224 244 243 223
f 225 245 244 224
f 226 246 245 225
f 227 247 246 226
f 228 248 247 227
f 229 249 248 228
f 230 250 249 229
f 231 251 250 230
f 232 252 251 231
f 233 253 252 232
f 234 254 253 233
f 235 255 254 234
f 236 256 255 235
f 237 257 256 236
f 238 258 257 237
f 239 259 258 238
f 240 260 259 239
f 221 241 260 240
f 242 262 261 241
f 243 263 262 242
f 244 264 263 243
f 245 265 264 244
f 246 266 265 245
f 247 267 266 246
f 248 268 267 247
f 249 269 268 248
f 250 270 269 249
f 251 271 270 250
f 252 272 271 251
f 253 273 272 252
f 254 274 273 253
f 255 275 274 254
f 256 276 275 255
f 257 277 276 256
f 258 278 277 257
f 259 279 278 258
f 260 280 279 259
f 241 261 280 260
f 262 282 281 261
f 263 283 282 262
f 264 284 283 263
f 265 285 284 264
f 266 286 285 265
f 267 287 286 266
f 268 288 287 267
f 269 289 288 268
f 270 290 289 269
f 271 291 290 270
f 272 292 291 271
f 273 293 292 272
f 274 294 293 273
f 275 295 294 274
f 276 296 295 275
f 277 297 296 276
f 278 298 297 277
f 279 299 298 278
f 280 300 299 279
f 261 281 300 280
f 282 302 301 281
f 283 303 302 282
f 284 304 303 283
f 285 305 304 284
f 286 306 305 285
f 287 307 306 286
f 288 308 307 287
f 289 309 308 288
f 290 310 309 289
f 291 311 310 290
f 292 312 311 291
f 293 313 312 292
f 294 314 313 293
f 295 315 314 294
f 296 316 315 295
f 297 317 316 296
f 298 318 317 297
f 299 319 318 298
f 300 320 319 299
f 281 301 320 300
f 302 322 321 301
f 303 323 322 302
f 304 324 323 303
f 305 325 324 304
f 306 326 325 305
f 307 327 326 306
f 308 328 327 307
f 309 329 328 308
f 310 330 329 309
f 311 331 330 310
f 312 332 331 311
f 313 333 332 312
f 314 334 333 313
f 315 335 334 314
f 316 336 335 315
f 317 337 336 316
f 318 338 337 317
f 319 339 338 318
f 320 340 339 319
f 301 321 340 320
f 322 342 341 321
f 323 343 342 322
f 324 344 343 323
f 325 345 344 324
f 326 346 345 325
f 327 347 346 326
f 328 348 347 327
f 329 349 348 328
f 330 350 349 329
f 331 351 350 330
f 332 352 351 331
f 333 353 352 332
f 334 354 353 333
f 335 355 354 334
f 336 356 355 335
f 337 357 356 336
f 338 358 357 337
f 339 359 358 338
f 340 360 359 339
f 321 341 360 340
f 342 362 361 341
f 343 363 362 342
f 344 364 363 343
f 345 365 364 344
f 346 366 365 345
f 347 367 366 346
f 348 368 367 347
f 349 369 368 348
f 350 370 369 349
f 351 371 370 350
f 352 372 371 351
f 353 373 372 352
f 354 374 373 353
f 355 375 374 354
f 356 376 375 355
f 357 377 376 356
f 358 378 377 357
f 359 379 378 358
f 360 380 379 359
f 341 361 380 360
f 362 382 381 361
f 363 383 382 362
f 364 384 383 363
f 365 385 384 364
f 366 386 385 365
f 367 387 386 366
f 368 388 387 367
f 369 389 388 368
f 370 390 389 369
f 371 391 390 370
f 372 392 391 371
f 373 393 392 372
f 374 394 393 373
f 375 395 394 374
f 376 396 395 375
f 377 397 396 376
f 378 398 397 377
f 379 399 398 378
f 380 400 399 379
f 361 381 400 380
f 382 402 401 381
f 383 403 402 382
f 384 404 403 383
f 385 405 404 384
f 386 406 405 385
f 387 407 406 386
f 388 408 407 387
f 389 409 408 388
f 390 410 409 389
f 391 411 410 390
f 392 412 411 391
f 393 413 412 392
f 394 414 413 393
f 395 415 414 394
f 396 416 415 395
f 397 417 416 396
f 398 418 417 397
f 399 419 418 398
f 400 420 419 399
f 381 401 420 400
f 402 422 421 401
f 403 423 422 402
f 404 424 423 403
f 405 425 424 404
f 406 426 425 405
f 407 427 426 406
f 408 428 427 407
f 409 429 428 408
f 410 430 429 409
f 411 431 430 410
f 412 432 431 411
f 413 433 432 412
f 414 434 433 413
f 415 435 434 414
f 416 436 435 415
f 417 437 436 416
f 418 438 437 417
f 419 439 438 418
f 420 440 439 419
f 401 421 440 420
f 422 442 441 421
f 423 443 442 422
f 424 444 443 423
f 425 445 444 424
f 426 446 445 425
f 427 447 446 426
f 428 448 447 427
f 429 449 448 428
f 430 450 449 429
f 431 451 450 430
f 432 452 451 431
f 433 453 452 432
f 434 454 453 433
f 435 455 454 434
f 436 456 455 435
f 437 457 456 436
f 438 458 457 437
f 439 459 458 438
f 440 460 459 439
f 421 441 460 440
f 442 462 461 441
f 443 463 462 442
f 444 464 463 443
f 445 465 464 444
f 446 466 465 445
f 447 467 466 446
f 448 468 467 447
f 449 469 468 448
f 450 470 469 449
f 451 471 470 450
f 452 472 471 451
f 453 473 472 452
f 454 474 473 453
f 455 475 474 454
f 456 476 475 455
f 457 477 476 456
f 458 478 477 457
f 459 479 478 458
f 460 480 479 459
f 441 461 480 460
f 462 482 481 461
f 463 483 482 462
f 464 484 483 463
f 465 485 484 464
f 466 486 485 465
f 467 487 486 466
f 468 488 487 467
f 469 489 488 468
f 470 490 489 469
f 471 491 490 470
f 472 492 491 471
f 473 493 492 472
f 474 494 493 473
f 475 495 494 474
f 476 496 495 475
f 477 497 496 476
f 478 498 497 477
f 479 499 498 478
f 480 500 499 479
f 461 481 500 480
f 482 502 501 481
f 483 503 502 482
f 484 504 503 483
f 485 505 504 484
f 486 506 505 485
f 487 507 506 486
f 488 508 507 487
f 489 509 508 488
f 490 510 509 489
f 491 511 510 490
f 492 512 511 491
f 493 513 512 492
f 494 514 513 493
f 495 515 514 494
f 496 516 515 495
f 497 517 516 496
f 498 518 517 497
f 499 519 518 498
f 500 520 519 499
f 481 501 520 500
f 502 522 521 501
f 503 523 522 502
f 504 524 523 503
f 505 525 524 504
f 506 526 525 505
f 507 527 526 506
f 508 528 527 507
f 509 529 528 508
f 510 530 529 509
f 511 531 530 510
f 512 532 531 511
f 513 533 532 512
f 514 534 533 513
f 515 535 534 514
f 516 536 535 515
f 517 537 536 516
f 518 538 537 517
f 519 539 538 518
f 520 540 539 519
f 501 521 540 520
f 522 542 541 521
f 523 543 542 522
f 524 544 543 523
f 525 545 544 524
f 526 546 545 525
f 527 547 546 526
f 528 548 547 527
f 529 549 548 528
f 530 550 549 529
f 531 551 550 530
f 532 552 551 531
f 533 553 552 532
f 534 554 553 533
f 535 555 554 534
f 536 556 555 535
f 537 557 556 536
f 538 558 557 537
f 539 559 558 538
f 540 560 559 539
f 521 541 560 540
f 542 562 561 541
f 543 563 562 542
f 544 564 563 543
f 545 565 564 544
f 546 566 565 545
f 547 567 566 546
f 548 568 567 547
f 549 569 568 548
f 550 570 569 549
f 551 571 570 550
f 552 572 571 551
f 553 573 572 552
f 554 574 573 553
f 555 575 574 554
f 556 576 575 555
f 557 577 576 556
f 558 578 577 557
f 559 579 578 558
f 560 580 579 559
f 541 561 580 560
f 562 582 581 561
f 563 583 582 562
f 564 584 583 563
f 565 585 584 564
f 566 586 585 565
f 567 587 586 566
f 568 588 587 567
f 569 589 588 568
f 570 590 589 569
f 571 591 590 570
f 572 592 591 571
f 573 593 592 572
f 574 594 593 573
f 575 595 594 574
f 576 596 595 575
f 577 597 596 576
f 578 598 597 577
f 579 599 598 578
f 580 600 599 579
f 561 581 600 580
f 582 602 601 581
f 583 603 602 582
f 584 604 603 583
f 585 605 604 584
f 586 606 605 585
f 587 607 606 586
f 588 608 607 587
f 589 609 608 588
f 590 610 609 589
f 591 611 610 590
f 592 612 611 591
f 593 613 612 592
f 594 614 613 593
f 595 615 614 594
f 596 616 615 595
f 597 617 616 596
f 598 618 617 597
f 599 619 618 598
f 600 620 619 599
f 581 601 620 600
f 602 622 621 601
f 603 623 622 602
f 604 624 623 603
f 605 625 624 604
f 606 626 625 605
f 607 627 626 606
f 608 628 627 607
f 609 629 628 608
f 610 630 629 609
f 611 631 630 610
f 612 632 631 611
f 613 633 632 612
f 614 634 633 613
f 615 635 634 614
f 616 636 635 615
f 617 637 636 616
f 618 638 637 617
f 619 639 638 618
f 620 640 639 619
f 601 621 640 620
f 622 642 641 621
f 623 643 642 622
f 624 644 643 623
f 625 645 644 624
f 626 646 645 625
f 627 647 646 626
f 628 648 647 627
f 629 649 648 628
f 630 650 649 629
f 631 651 650 630
f 632 652 651 631
f 633 653 652 632
f 634 654 653 633
f 635 655 654 634
f 636 656 655 635
f 637 657 656 636
f 638 658 657 637
f 639 659 658 638
f 640 660 659 639
f 621 641 660 640
f 642 662 661 641
f 643 663 662 642
f 644 664 663 643
f 645 665 664 644
f 646 666 665 645
f 647 667 666 646
f 648 668 667 647
f 649 669 668 648
f 650 670 669 649
f 651 671 670 650
f 652 672 671 651
f 653 673 672 652
f 654 674 673 653
f 655 675 674 654
f 656 676 675 655
f 657 677 676 656
f 658 678 677 657
f 659 679 678 658
f 660 680 679 659
f 641 661 680 660
f 662 682 681 661
f 663 683 682 662
f 664 684 683 663
f 665 685 684 664
f 666 686 685 665
f 667 687 686 666
f 668 688 687 667
f 669 689 688 668
f 670 690 689 669
f 671 691 690 670
f 672 692 691 671
f 673 693 692 672
f 674 694 693 673
f 675 695 694 674
f 676 696 695 675
f 677 697 696 676
f 678 698 697 677
f 679 699 698 678
f 680 700 699 679
f 661 681 700 680
f 682 702 701 681
f 683 703 702 682
f 684 704 703 683
f 685 705 704 684
f 686 706 705 685
f 687 707 706 686
f 688 708 707 687
f 689 709 708 688
f 690 710 709 689
f 691 711 710 690
f 692 712 711 691
f 693 713 712 692
f 694 714 713 693
f 695 715 714 694
f 696 716 715 695
f 697 717 716 696
f 698 718 717 697
f 699 719 718 698
f 700 720 719 699
f 681 701 720 700
f 702 722 721 701
f 703 723 722 702
f 704 724 723 703
f 705 725 724 704
f 706 726 725 705
f 707 727 726 706
f 708 728 727 707
f 709 729 728 708
f 710 730 729 709
f 711 731 730 710
f 712 732 731 711
f 713 733 732 712
f 714 734 733 713
f 715 735 734 714
f 716 736 735 715
f 717 737 736 716
f 718 738 737 717
f 719 739 738 718
f 720 740 739 719
f 701 721 740 720
f 722 742 741 721
f 723 743 742 722
f 724 744 743 723
f 725 745 744 724
f 726 746 745 725
f 727 747 746 726
f 728 748 747 727
f 729 749 748 728
f 730 750 749 729
f 731 751 750 730
f 732 752 751 731
f 733 753 752 732
f 734 754 753 733
f 735 755 754 734
f 736 756 755 735
f 737 757 756 736
f 738 758 757 737
f 739 759 758 738
f 740 760 759 739
f 721 741 760 740
f 742 762 761 741
f 743 763 762 742
f 744 764 763 743
f 745 765 764 744
f 746 766 765 745
f 747 767 766 746
f 748 768 767 747
f 749 769 768 748
f 750 770 769 749
f 751 771 770 750
f 752 772 771 751
f 753 773 772 752
f 754 774 773 753
f 755 775 774 754
f 756 776 775 755
f 757 777 776 756
f 758 778 777 757
f 759 779 778 758
f 760 780 779 759
f 741 761 780 760
f 762 782 781 761
f 763 783 782 762
f 764 784 783 763
f 765 785 784 764
f 766 786 785 765
f 767 787 786 766
f 768 788 787 767
f 769 789 788 768
f 770 790 789 769
f 771 791 790 770
f 772 792 791 771
f 773 793 792 772
f 774 794 793 773
f 775 795 794 774
f 776 796 795 775
f 777 797 796 776
f 778 798 797 777
f 779 799 798 778
f 780 800 799 779
f 761 781 800 780
f 782 2 1 781
f 783 3 2 782
f 784 4 3 783
f 785 5 4 784
f 786 6 5 785
f 787 7 6 786
f 788 8 7 787
f 789 9 8 788
f 790 10 9 789
f 791 11 10 790
f 792 12 11 791
f 793 13 12 792
f 794 14 13 793
f 795 15 14 794
f 796 16 15 795
f 797 17 16 796
f 798 18 17 797
f 799 19 18 798
f 800 20 19 799
f 781 1 20 800
